<?xml version="1.0" encoding="UTF-8"?>
<svg version="1.1" viewBox="0 0 2000 2000" width="500" height="500" xmlns="http://www.w3.org/2000/svg">
<path transform="translate(0)" d="m0 0h2e3v2e3h-2e3z" fill="#FEFEFE"/>
<path transform="translate(996,349)" d="m0 0 6 1 20 10 19 10 27 14 39 20 19 10 101 52 27 14 19 10 16 8 60 31 29 15 19 10 27 14 45 23 46 24 16 8 23 12 35 18 29 15 19 10 27 14 45 23 46 24 76 39 27 14 19 10 39 20 27 14 19 10 5 3-8 16-20 38-4 6-19-9-19-10-33-17-16-8-17-9h-1l-1 734h-68l-1-766-1-5-23-12-19-10-15-8-16-8-15-8-16-8-68-35-29-15-52-27-41-21-19-10-15-8-16-8-35-18-29-15-23-12-39-20-19-10-17-9-32-16-27-14-52-27-41-21-19-10-29-15-27-14-25-13-5-1-10 6-16 8-29 15-60 31-23 12-31 16-19 10-15 8-16 8-58 30-19 10-37 19-19 10-27 14-29 15-19 10-37 19-19 10-35 18-19 10-27 14-31 16-19 10-35 18-19 10-62 32-23 12-10 5-1 54-1 714h-68v-731l-16 8-17 9-16 8-39 20-7 4-5-1-18-35-11-21 1-4 16-8 62-32 23-12 52-27 35-18 22-12 16-8 41-21 51-27 16-8 2-5v-189l1-1h178l1 2 1 34v64l62-32 33-17 22-12 16-8 41-21 25-13 19-10 50-26 35-18 19-10 33-17 19-10 39-20 23-12z" fill="#BB0F0D"/>
<path transform="translate(1760,820)" d="m0 0 9 3 16 8 17 9 16 8 11 6v736h-68z"/>
<path transform="translate(227,824)" d="m0 0h5l-1 766h-68v-732l8-5 22-12 23-11z"/>
<path transform="translate(1235,1130)" d="m0 0h54l4 4 3 9 22 99 12 53 4 21 4-13 12-54 11-49 14-62 3-7 3-1h54l4 3 1 37v39l-1 209-3 5-3 1h-37l-4-2-1-2-1-137 1-32-2 1-4 15-17 79-15 67-4 8-5 3h-20l-3-1-4-8-7-30-19-86-9-43-1-3-3-1 1 6v146l-1 15-5 5h-37l-4-1-2-6v-281l2-5z"/>
<path transform="translate(1317,809)" d="m0 0h59l15 3 12 6 7 6 6 10 4 10 2 11v170l-3 15-4 9-6 8-8 7-11 5-8 2-11 1h-50l-14-2-13-5-9-7-6-8-4-8-3-13-1-22v-119l1-35 4-16 5-9 7-8 10-6 8-3z" fill="#020000"/>
<path transform="translate(612,789)" d="m0 0h35l14 1 11 3 10 5 5 4 7 10 4 11 1 6v199l-3 13-6 11-9 8-13 6-14 2h-48l-13-2-11-4-8-6-7-8-5-12-2-15v-184l2-15 4-10 6-9 9-7 9-4 9-2z" fill="#010000"/>
<path transform="translate(582,1130)" d="m0 0h57l3 3 6 26 33 153 15 69 7 33v9l-3 1h-43l-4-6-10-51v-2h-65l-5 28-5 25-2 5-2 1h-42l-4-1v-8l15-70 14-65 16-74 11-50 5-22 1-3z" fill="#010000"/>
<path transform="translate(1512,1130)" d="m0 0h54l16 3 12 6 9 9 6 12 3 15v48l-2 4-2 1h-43l-2-1-1-4-1-34-3-6-5-3h-28l-5 3-3 3-1 4v53l10 4 55 18 23 8 5 3 3 5v98l-3 15-6 12-8 8-14 7-8 2-10 1h-50l-13-2-12-5-9-6-7-9-4-9-2-8-1-9v-44l2-5 11-1h30l6 1 1 2 1 34 2 6 4 4 3 1h28l5-3 3-6v-53l-85-28-8-5-3-5v-94l2-16 4-10 8-11 10-7 10-4z"/>
<path transform="translate(1069,1130)" d="m0 0h41l3 2 1 3 1 229 3 7 5 3h31l6-5 1-2 1-12v-179l1-44 4-2h40l3 2 1 3v244l-3 15-5 10-8 9-10 6-13 4-10 1h-49l-14-2-13-5-9-7-6-8-4-9-3-17v-239l2-6z"/>
<path transform="translate(896,1130)" d="m0 0h40l4 2 1 3 1 227 2 7 4 4 2 1h30l5-2 3-5 1-8 1-227 4-2h40l3 2 1 3v245l-3 14-6 12-8 8-14 7-7 2-11 1h-49l-15-2-12-5-9-7-6-8-5-12-2-14v-240l2-5z"/>
<path transform="translate(407,789)" d="m0 0h31l5 2 1 16v93l1 5h42l1-113 1-2 12-1h27l7 2v273l-1 3-3 1h-40l-3-2v-114l-44 1-1 113-3 2h-41l-3-3v-267l1-7 1-1z" fill="#010000"/>
<path transform="translate(941,789)" d="m0 0h33l20 2 13 5 10 9 6 9 3 9 1 6v51l-2 2h-42l-2-1-1-3-1-31-2-8-6-2h-26l-6 3-2 4-1 8 1 45 81 27 6 4 3 4v96l-3 13-6 11-9 8-11 5-16 3h-48l-13-2-11-4-8-6-7-8-5-12-2-15v-40l1-5 9-1h29l7 1 1 1 1 14v14l1 9 4 5 6 2h22l7-3 3-7v-49l-37-12-36-12-12-5-5-4-1-3v-89l2-15 4-10 4-6 4-5 9-6 11-4z" fill="#010000"/>
<path transform="translate(765,1130)" d="m0 0h55l11 2 11 4 11 8 7 11 4 10 2 17-1 45-5 2h-34l-8-1-1-4-1-34-3-7-5-3h-30l-5 3-3 4v179l3 6 4 2h30l6-3 3-7 1-37 7-2h36l5 2 1 5v36l-1 15-3 12-6 11-5 6-11 7-9 3-14 2h-50l-14-2-12-5-9-6-7-9-4-9-2-8-1-9v-198l2-13 5-13 8-10 11-7 12-4z" fill="#020000"/>
<path transform="translate(747,789)" d="m0 0h12l10 1 2 2 1 214 2 10 4 4 4 1h24l7-3 3-5 1-65 1-157 2-1 19-1h14l8 1 2 4v234l-3 13-6 11-9 8-10 5-8 2-9 1h-48l-14-2-12-5-10-9-6-10-3-11-1-10v-224l2-7z"/>
<path transform="translate(370,1130)" d="m0 0h40l4 4 4 16 17 88 18 90 1 1 10-52 28-140 3-6 3-1h40l4 2v8l-9 40-50 225-4 14-3 4-3 1h-40l-4-2-5-16-14-63-42-190-3-14v-7z" fill="#010000"/>
<path transform="translate(1071,789)" d="m0 0h98l21 1 1 2v37l-1 6-2 1-89 1v68h68l3 2v41l-1 3-4 1h-67l1 70h90l2 2v38l-1 5-2 1h-134l-2-4v-268l1-6z"/>
<path transform="translate(1451,809)" d="m0 0h145l3 4v39l-2 6-4 1h-93v64h74l2 2v46l-1 1-14 1h-61v83l-1 13-1 2-3 1h-43l-3-2-1-41 1-218z" fill="#010000"/>
<path transform="translate(616,835)" d="m0 0h30l6 4 2 4v172l-6 7-4 1h-28l-6-3-3-5-1-7v-160l3-9 4-3z" fill="#FEFEFE"/>
<path transform="translate(1330,858)" d="m0 0h35l5 3 4 5 1 100v32l-1 17-6 7-2 1h-37l-5-3-3-5-1-13v-130l2-8 5-5z" fill="#FEFEFE"/>
<path transform="translate(508,1509)" d="m0 0h1025l1 3-2 5h-1023l-1-4z"/>
<path transform="translate(432,540)" d="m0 0h59v71l-16 9-33 17-7 4h-3z" fill="#FEFEFE"/>
<path transform="translate(1098,1594)" d="m0 0h18l10 5 7 8 4 8 2 8 1 9v11l-2 13-5 12-7 8-9 4-4 1h-12l-11-4-8-7-3-5 1-5 5-3 4 2 6 8 6 3h14l7-4 4-6 3-10 1-7v-8l-7 9-8 4-12 1-11-3-8-6-5-8-1-4v-13l4-10 7-7z" fill="#050000"/>
<path transform="translate(609,1197)" d="m0 0h2l4 20 18 98 1 7-43 1-4-1 2-13 19-105z" fill="#FEFEFE"/>
<path transform="translate(856,1594)" d="m0 0h20l10 4 8 6 4 6-2 5-4 2-4-1-4-5v-2l-5-2-11-3h-9l-8 3-5 7 1 9 5 5 34 9 7 4 5 6 2 10-2 9-8 9-8 4-8 2h-14l-12-3-10-6-6-7 1-5 4-4 5 3 4 5 9 5 4 1h18l8-4 3-5v-7l-3-5-16-5-20-5-8-5-5-6-1-3v-12l4-8 5-5 6-4z" fill="#040000"/>
<path transform="translate(770,1595)" d="m0 0h59l1 2-1 7-14 1h-35v27h39v9l-1 1h-38v28h51l1 9-3 1h-59z" fill="#050000"/>
<path transform="translate(1209,1595)" d="m0 0h48v9l-21 1h-19v10l-2 16 6-4 3-1h18l8 4 5 5 4 6 2 12-2 11-6 9-9 6-7 2h-12l-11-4-7-6-4-8 2-4 3-2 4 1 6 9 6 3h14l6-3 4-6 1-3v-11l-3-6-5-4-4-1h-10l-10 4-5 3h-6l-1-1v-13l3-33z" fill="#060000"/>
<path transform="translate(896,1595)" d="m0 0h69l1 4-1 5-2 1h-27v74l-1 1h-9l-1-1v-74h-28l-2-5z" fill="#100101"/>
<path transform="translate(1139,1595)" d="m0 0h63v8l-4 6-9 12-8 14-6 17-3 17-1 10-1 1h-7l-3-1 2-18 5-20 8-16 10-15 3-3 1-3-5 1h-43l-2-1z" fill="#090000"/>
<path transform="translate(1064,1594)" d="m0 0 4 1v85h-10l-1-3 1-68-16 9-6 1-3-6 1-3 16-8 11-7z" fill="#040000"/>
<path transform="translate(1105,1603)" d="m0 0 9 1 7 4 4 7v13l-7 8-7 3h-8l-8-3-5-6-1-2v-12l3-6 6-5z" fill="#FEFEFE"/>
<path transform="translate(958,1665)" d="m0 0h8l4 4v6l-5 6h-6l-4-4-1-2v-6z" fill="#060000"/>
</svg>
